<?xml version="1.0" encoding="utf-8"?>
<!-- Generator: Adobe Illustrator 26.0.1, SVG Export Plug-In . SVG Version: 6.00 Build 0)  -->
<svg version="1.1" id="Layer_1" xmlns="http://www.w3.org/2000/svg" xmlns:xlink="http://www.w3.org/1999/xlink" x="0px" y="0px"
	 viewBox="0 0 1080 1080" style="enable-background:new 0 0 1080 1080;" xml:space="preserve">
<style type="text/css">
	.st0{fill:#FFFFFF;}
</style>
<path d="M497.81,0c26.02,0,52.03,0,78.05,0c21.88,2.96,43.94,4.96,65.61,9.03c217.42,40.9,393.86,221.47,430.21,440.02
	c3.27,19.68,5.58,39.53,8.33,59.3c0,21.8,0,43.59,0,65.39c-0.52,1.65-1.4,3.29-1.51,4.97c-3.3,49.28-14.25,96.89-30.72,143.38
	c-1.16,3.28,0.21,7.97,1.58,11.56c7.85,20.54,16.73,40.71,23.88,61.48c3.71,10.78,4.61,22.54,6.78,33.85c0,12.66,0,25.31,0,37.97
	c-0.61,1.95-1.49,3.87-1.8,5.87c-15.34,98.48-70.94,163.5-164.33,196.44c-15.03,5.3-31.25,7.24-46.92,10.74
	c-12.66,0-25.31,0-37.97,0c-0.94-0.44-1.85-1.19-2.82-1.29c-33.65-3.33-64.84-14.12-94.42-30.26c-3.04-1.66-7.97-1.04-11.66-0.09
	c-30.49,7.84-60.71,16.78-91.38,23.8c-17.97,4.11-36.61,5.32-54.94,7.84c-21.8,0-43.59,0-65.39,0c-12.83-1.59-25.7-2.94-38.49-4.81
	c-114.22-16.71-214.08-64.02-298.56-142.56c-87.13-81-142.43-179.98-163.16-297.57c-3.46-19.6-5.47-39.46-8.15-59.2
	c0-26.02,0-52.03,0-78.05c2.49-17.68,4.43-35.47,7.57-53.03c18.1-101.2,62.97-189.39,131.88-265.13
	C221.61,89.36,322.02,30.44,442.77,8.06C460.99,4.68,479.46,2.65,497.81,0z M1014.06,685.06c57.99-157.62,15.6-397.43-182.06-547.38
	C620.88-22.48,333.76,38.13,185.57,186.88C18.53,354.55-2.25,643.01,139.51,838.26c141.18,194.45,403.39,228.79,545.74,175.65
	c-7.29-8.57-15.24-16.63-21.58-25.8c-4.86-7.02-9.56-8-17.54-6.09c-63.33,15.12-127.04,17.52-191.29,5.56
	c-271.9-50.64-451.76-351.06-334.6-624.35c9.92-23.14,22.74-45.09,35.07-67.11c6.08-10.86,18.3-13.37,28.29-7.67
	c10.41,5.94,13.5,17.83,7.5,29.26c-1.63,3.1-3.61,6.02-5.41,9.04c-54.93,92.12-72.5,190.72-50.55,295.89
	c40.55,194.31,215.6,334.62,412.85,330.17c28.85-0.65,57.61-5.94,87.44-9.2c-37.86-98.75-23.73-186.25,49.14-259.1
	c72.86-72.84,160.38-86.91,259.07-49.11c3.25-29.92,8.47-58.69,9.14-87.56c2.51-108.59-33.39-203.72-106.88-283.46
	c-80.15-86.96-179.8-134.05-298.61-138.03c-79.44-2.66-152.73,18.69-220.66,59.4c-2.11,1.26-4.17,2.61-6.3,3.84
	c-12.92,7.45-24.66,5.51-31.43-5.18c-6.85-10.82-3.14-23.21,9.93-30.96c147.29-87.37,299.37-96.61,450.53-15.76
	c159.91,85.53,243.58,222.36,245.27,405.32c0.32,34.72-8.38,69.51-12.64,104.3c-0.49,4.03-0.74,9.93,1.59,12.14
	C993.18,668.58,1003.81,676.63,1014.06,685.06z M853.2,1037.06c105.28-4.01,185.91-89.78,183.47-190.45
	c-2.74-113.12-88.01-192.85-196.65-187.93c-109.97,4.98-187.52,91.44-181.81,202.68C663.26,959.81,754.41,1041.95,853.2,1037.06z"/>
<path class="st0" d="M1080,828.98c-2.17-11.31-3.06-23.07-6.78-33.85c-7.16-20.77-16.03-40.94-23.88-61.48
	c-1.37-3.58-2.74-8.27-1.58-11.56c16.47-46.48,27.42-94.09,30.72-143.38c0.11-1.68,0.99-3.31,1.51-4.97
	C1080,658.83,1080,743.91,1080,828.98z"/>
<path d="M515.66,529.07c1.87,24.87-17.04,44.7-41.16,44.59c-23.21-0.11-42.21-19.38-41.98-42.57c0.24-24.04,20.34-42.54,44.95-41.75
	c3.82,0.12,7.69-1.44,11.53-2.22c-1.24-3.42-2.38-6.88-3.75-10.25c-4.64-11.33-9.22-22.68-14.13-33.89
	c-1.49-3.4-4.01-9.07-5.99-9.04c-5.71,0.09-13.31,0.76-16.73,4.41c-12.86,13.75-27.71,18.83-45.66,14.07
	c-17.25-4.57-28.64-19.21-29.59-36.83c-1.03-19.11,8.1-34.79,24.28-41.71c16.87-7.22,35.88-3.1,48.5,9.87
	c3.1,3.19,7.38,6.04,11.61,7.15c7.96,2.1,12.01-1.19,14.36-10c3.11-11.72,9.16-22.64,13.74-33.99c1.3-3.23,1.89-6.74,2.8-10.12
	c-3.22-0.57-6.49-1.79-9.67-1.61c-22.48,1.3-41.61-13.25-45.83-35.16c-3.91-20.32,9.8-41.41,30.99-47.63
	c25.35-7.45,52.19,12.57,52.81,39.47c0.07,3.15-0.68,6.32-0.49,9.45c0.35,5.87,2.47,8.02,8.85,5.13
	c13.98-6.33,28.36-11.75,42.45-17.85c2.14-0.93,4.97-3.39,5.08-5.28c0.39-6.35,1.49-12.39-5.23-17.83
	c-20.85-16.87-20.31-48.76,0.25-65.21c17.43-13.95,43.46-11.64,57.99,5.14c14.98,17.31,13.37,43.22-3.34,59.01
	c-3.02,2.86-6.03,6.73-6.92,10.63c-1.83,7.95,0.19,12.93,10.17,15.32c12.07,2.88,23.24,9.48,34.84,14.35
	c2.69,1.13,5.59,1.77,8.4,2.64c0.81-3.12,2.49-6.31,2.29-9.36c-2.08-31.48,25.95-54.48,55.04-44.96
	c19.92,6.52,32.2,26.73,28.63,47.12c-3.66,20.86-22.45,35.8-43.71,35.12c-3.88-0.13-7.81,1.07-11.71,1.65
	c1.3,3.99,2.38,8.06,3.95,11.95c4.18,10.39,8.38,20.77,12.96,30.98c1.78,3.98,3.98,9.91,7.07,10.7c5.95,1.52,12.21,1.56,17.65-5.09
	c18.52-22.62,54.71-19.06,68.78,6.03c10.39,18.52,5.3,42.17-11.75,54.68c-17.43,12.78-42.13,10.56-56.13-6.14
	c-4.79-5.72-9.79-8.01-16.21-6.43c-3.15,0.77-6.87,3.74-8.2,6.68c-5.31,11.77-9.82,23.91-14.54,35.95
	c-1.43,3.65-2.6,7.41-3.88,11.12c3.88,0.7,7.77,2.02,11.65,1.99c16.42-0.12,29.49,6.1,38.19,20.11c8.46,13.64,8.7,27.98,1.23,42.12
	c-9.25,17.51-29.4,25.78-48.46,20.32c-19-5.45-31.48-23.11-30.72-42.86c0.15-3.83-1.19-7.72-1.84-11.59
	c-3.71,1.26-7.5,2.35-11.13,3.82c-11.02,4.46-22.03,8.94-32.93,13.69c-3.45,1.5-8.93,3.49-9.3,5.91c-0.95,6.08-2.21,12.4,4.48,17.99
	c23.14,19.33,19.8,55.35-5.79,69.45c-18.59,10.24-42.12,4.96-54.59-12.23c-12.63-17.43-9.73-41.65,6.33-56.45
	c3.01-2.77,5.65-6.84,6.6-10.76c1.89-7.81-0.78-12.18-9.9-14.43c-11.41-2.81-22.04-8.77-33.06-13.22
	c-3.59-1.45-7.38-2.41-11.08-3.59C517.67,521.43,516.67,525.25,515.66,529.07z M593.36,495.94c48.29,0.23,84.49-35.81,84.77-84.39
	c0.26-45.51-37.92-83.35-84.14-83.4c-45.88-0.05-83.54,36.8-84.07,82.25C509.35,458.93,545.23,495.71,593.36,495.94z"/>
<path d="M317.5,688.69c-2.51-7.23-6-13-6.27-18.92c-0.75-16.1,17.34-25.86,31.7-17.71c9.55,5.42,25.66-1.14,28.33-11.5
	c2.6-10.06,9.15-15.57,19.5-16.14c10.24-0.57,18.02,5.37,20.96,15.57c3.24,11.24,18.58,17.47,29.03,11.79
	c8.34-4.53,19.06-3.32,25.27,3.34c6.97,7.48,8.33,16.01,3.34,25.17c-1.17,2.14-2.79,4.03-4.46,6.39c2.16,5.26,4.01,10.93,6.82,16.07
	c1.38,2.53,4.27,5.11,6.98,5.87c11.5,3.23,17.74,9.83,18.03,20.26c0.3,10.84-5.72,18.06-17.86,21.42
	c-8.12,2.24-14.98,19.44-10.64,26.67c5.98,9.96,5.19,19.53-2.22,26.94c-7.31,7.31-16.85,8.09-26.98,2.21
	c-7.4-4.29-24.56,2.67-26.87,10.9c-3.27,11.65-10.2,17.7-20.38,17.8c-10.49,0.1-17.62-6.24-20.77-18.5
	c-1.83-7.12-19.89-14.35-26.33-10.54c-10.69,6.32-20.32,5.56-27.76-2.2c-7.15-7.45-7.74-17.06-1.68-27.07
	c4.02-6.63-2.85-23.99-10.32-26.12c-12.99-3.7-18.31-9.78-18.28-20.92c0.03-11.24,5.68-17.37,18.35-20.87
	c2.48-0.68,5.22-2.96,6.42-5.25C314.12,698.1,315.99,692.4,317.5,688.69z M349.72,729.42c0.2,24.11,18.33,42.29,42.05,42.14
	c23.54-0.15,41.92-18.75,42-42.5c0.08-22.91-19.43-41.8-42.89-41.53C367.87,687.8,349.53,706.46,349.72,729.42z"/>
<path d="M255.03,512.54c-0.05-18,13.26-31.56,31.05-31.62c17.66-0.06,31.43,13.63,31.52,31.35c0.08,17.6-13.75,31.67-31.24,31.77
	C268.78,544.13,255.08,530.36,255.03,512.54z"/>
<path d="M253.44,232.87c-0.11,11.72-9.03,20.55-20.77,20.57c-11.48,0.01-20.94-9.17-21.14-20.51c-0.19-11.48,10.12-21.68,21.6-21.36
	C244.54,211.88,253.54,221.32,253.44,232.87z"/>
<path d="M822.3,806.95c17.61-17.75,34.92-35.59,52.67-53c18.47-18.12,40.66-23.26,65.08-15.4c42.65,13.74,57.79,68.73,27.02,101.25
	c-33.54,35.45-68.37,69.71-103.48,103.62c-23.44,22.64-61.41,21.69-85.07-0.96c-16.23-15.54-32.04-31.54-47.75-47.61
	c-24.54-25.08-25.24-63.7-1.88-88.38c23.65-25,61.36-26.56,88.32-3.66C818.54,803.94,819.91,805.01,822.3,806.95z M940.81,801.61
	c-0.21-14.41-8.3-24.22-18.95-23.53c-6.65,0.43-14.44,3.66-19.27,8.23c-20.95,19.78-40.99,40.53-61.4,60.89
	c-14.45,14.42-24.68,14.31-39.36-0.31c-3.49-3.47-6.89-7.04-10.45-10.43c-10-9.5-22.3-10.16-30.97-1.73
	c-9.04,8.79-8.55,21.45,1.56,31.72c14.31,14.53,28.72,28.95,43.27,43.24c10.67,10.47,21.98,10.79,32.43,0.44
	c32.21-31.92,64.3-63.97,96.1-96.3C937.66,809.86,939.53,803.9,940.81,801.61z"/>
</svg>
