<?xml version="1.0" encoding="utf-8"?>
<!-- Generator: Adobe Illustrator 26.0.1, SVG Export Plug-In . SVG Version: 6.00 Build 0)  -->
<svg version="1.1" id="Layer_1" xmlns="http://www.w3.org/2000/svg" xmlns:xlink="http://www.w3.org/1999/xlink" x="0px" y="0px"
	 viewBox="0 0 1080 1080" style="enable-background:new 0 0 1080 1080;" xml:space="preserve">
<path d="M446.43,1080c-3.42-5.83-8.17-11.26-10.06-17.55c-12.72-42.27-32.05-81.37-55.73-119.65c-7.3,2.17-14.52,4.56-21.87,6.45
	c-35.62,9.14-71.29,18.08-106.9,27.27c-8.12,2.09-15.97,5.19-24.07,7.35c-30.03,8.02-54.6-3.79-62.18-33.79
	c-5.23-20.7-6.33-42.92-5.92-64.4c0.26-13.54-1.78-23.12-12.77-31.48c-10-7.61-18.65-17-27.88-25.62
	c-11.17-10.43-11.09-16.06,0.34-26.79c5.34-5.02,10.7-10.02,16.99-15.91c-11.28-5.37-21.62-10.27-31.95-15.21
	c-14.77-7.07-16.45-14.49-5.4-26.47c14.66-15.9,19.24-33.93,11.71-54.32c-1.56-4.22-5.05-8.45-8.78-11.03
	c-15-10.35-30.47-20.02-45.72-30.01c-12.99-8.51-13.45-14.3-3.7-26.16c23.82-28.97,48.08-57.63,70.56-87.61
	c11.03-14.71,19.78-31.52,27.29-48.39c11.3-25.4,13.19-52.13,4.28-78.93c-6.19-18.6-13.47-36.85-19.13-55.6
	c-1.97-6.53-2.64-14.85-0.36-21.06C201.09,151.89,327.18,39.67,515.74,9.24C673.09-16.15,815.22,28.3,933.21,137.18
	c70.34,64.91,98.7,149.76,98.88,244.37c0.15,78.95-23.99,151.69-58.56,221.55c-26.84,54.24-59.57,104.83-96.46,152.69
	c-8.87,11.5-12.65,23.85-13.75,37.71c-2.98,37.78,5.32,73.88,16.34,109.55c16.39,53.07,39.63,103.27,64.38,152.82
	c6.19,12.39,5.5,15.53-4.79,24.13C774.98,1080,610.7,1080,446.43,1080z M142.03,815.36c9.6,8.95,17.61,18.04,27.19,24.97
	c14.2,10.28,17.44,22.85,16.14,39.9c-1.44,19-0.39,38.62,2.78,57.43c3.64,21.6,16.21,27.41,37.11,20.75
	c7.33-2.33,14.61-4.85,22.03-6.86c46.63-12.65,93.74-23.76,139.84-38.12c54.41-16.94,106.33-39.88,151.63-75.58
	c5.23-4.12,9.65-9.99,15.53-12.32c4.47-1.77,12.77-1.1,15.49,1.94c2.76,3.09,2.06,10.85,0.44,15.76c-1.25,3.79-6.13,6.5-9.6,9.43
	c-26.73,22.58-56.72,39.98-88.43,54.37c-21.58,9.79-43.66,18.48-66.19,27.94c2.01,3.65,4.04,6.84,5.61,10.24
	c15.12,32.69,30.63,65.22,44.91,98.28c3.39,7.84,6.14,11.22,15.2,11.2c143.89-0.33,287.78-0.23,431.67-0.25
	c3.32,0,6.65-0.28,10.99-0.47c-2.01-4.58-3.51-8.03-5.03-11.47c-12.04-27.22-24.93-54.11-35.94-81.74
	c-18.74-47.01-34.23-94.98-35.82-146.27c-0.92-29.81,4.54-56.67,24.41-81.3c21.49-26.63,40.07-55.86,57.82-85.22
	c44.87-74.19,79.17-152.64,85.62-240.39c7.17-97.59-17.89-185.77-90.81-253.5C804.6,51.91,671.06,11.35,524.24,33.17
	C348.7,59.26,228.83,161.51,163.04,326.6c-3.82,9.59-4.33,18.12-0.06,27.97c5.97,13.77,10.14,28.33,14.93,42.6
	c12.6,37.56,10.12,74.75-8.82,108.93c-16.23,29.29-36.06,56.66-55.4,84.1c-10.55,14.96-23.4,28.3-35.53,42.75
	c11.65,7.58,21.97,15.76,33.5,21.46c17.56,8.69,23.95,23.81,26.84,41.26c2.77,16.7,0.49,32.86-7.96,47.85
	c-1.63,2.89-3.12,5.85-5.02,9.44c12.84,5.69,24.65,10.96,36.5,16.16c11.67,5.12,13.66,14.06,4.69,23
	C159.04,799.78,150.94,807,142.03,815.36z"/>
<path d="M600.78,241.43c26.31-31.91,58.82-51.6,98.61-59.5c96.31-19.12,191.03,59.23,189.35,157.46
	c-0.47,27.5-10.67,52.69-22.87,76.97c-23.88,47.54-57.6,87.85-93.86,126.15c-49.55,52.34-104.27,98.98-160.48,143.93
	c-7,5.6-13.39,6.52-20.73,0.63c-78.38-62.89-154.6-128.06-215.97-208.52c-26.53-34.78-49.9-71.7-58.71-115.21
	c-12-59.31,9.49-108.2,54.08-146.17c67.91-57.84,166.89-48.72,225.47,18.73C597.02,237.47,598.47,238.94,600.78,241.43z
	 M599.61,662.39c1.99-0.9,2.71-1.06,3.23-1.48c61.08-49.06,120.18-100.31,172.08-159.24c30.68-34.84,59.46-71.32,76.32-115.16
	c6.19-16.1,11.53-33.72,11.74-50.71c0.69-57.06-40.05-108.69-96.14-125.5c-56.99-17.08-118.27,5-151.55,54.61
	c-10.64,15.86-18.51,15.99-28.92,0.47c-44.24-65.95-132.76-80.53-196.03-32.48c-36.35,27.61-69.42,87.01-42.77,147.21
	c10.3,23.26,22.23,46.21,36.48,67.22c40.28,59.39,91.92,108.59,145.5,155.72C552.69,623.4,576.56,642.91,599.61,662.39z"/>
</svg>
