<?xml version="1.0" encoding="utf-8"?>
<!-- Generator: Adobe Illustrator 26.0.1, SVG Export Plug-In . SVG Version: 6.00 Build 0)  -->
<svg version="1.1" id="Layer_1" xmlns="http://www.w3.org/2000/svg" xmlns:xlink="http://www.w3.org/1999/xlink" x="0px" y="0px"
	 viewBox="0 0 1080 1080" style="enable-background:new 0 0 1080 1080;" xml:space="preserve">
<path d="M978.72,200.7c-32.25-5.97-63.8-11.06-95.01-17.71c-116.42-24.82-229.15-61-337.42-110.8c-3.5-1.61-9.01-1.61-12.53-0.02
	c-120.89,54.52-246.6,93.67-376.78,118.58c-18.26,3.49-36.67,6.21-55.95,9.45c0,11.41,0.13,22.59-0.03,33.77
	c-0.17,12.23-5.93,18.77-16.37,19.02c-10.93,0.26-17.19-6.48-17.31-19.12c-0.15-15.47-0.18-30.95,0.01-46.42
	c0.14-11.69,5.19-17.4,16.73-19.05c155.01-22.26,303.47-66.54,445.87-131.64c5.76-2.63,14.88-2.43,20.69,0.24
	c128.34,58.94,262.16,100.04,401.12,124.63c14.52,2.57,29.17,4.34,43.73,6.69c11.89,1.92,16.94,7.31,16.94,18.91
	c-0.01,124.84,2.82,249.77-0.94,374.5c-5.27,174.77-88.7,305.71-236.7,396.34c-69.83,42.76-145.4,71.53-225.94,86.47
	c-9.87,1.83-20.93-0.15-30.99-2.39c-105.08-23.45-201.59-65.5-284.39-135.44c-93.52-79-148.04-179.6-162.01-301.49
	c-2.72-23.69-3.83-47.67-3.99-71.53c-0.49-75.25-0.35-150.51,0.13-225.77c0.04-6.25,2.75-14.38,7.18-18.31
	c9.53-8.46,24.4-1.32,26.05,11.46c0.45,3.46,0.21,7.02,0.21,10.54c0.01,77.02-0.22,154.03,0.09,231.05
	c0.36,91.44,22.26,176.67,74.88,252.64c42.5,61.35,98.6,107.42,163.11,143.78c59.46,33.52,122.7,57.3,189.61,70.76
	c9.51,1.91,20.28,0.62,29.92-1.58c111.7-25.54,212.49-72.62,295.13-153.7c70.36-69.04,109.79-153.6,120.84-251.33
	c2.52-22.31,3.86-44.86,3.94-67.31c0.4-108.31,0.18-216.63,0.18-324.94C978.72,207.48,978.72,204.01,978.72,200.7z"/>
<path d="M539.86,235.51c156.81,0.49,287.4,119.65,302.26,276.21c5.45,57.44-5.04,111.91-30.35,163.62
	c-7.72,15.77-15.62,20.01-26.35,14.4c-10.48-5.48-11.32-13.61-4.19-29.03c45.26-97.91,38.5-192.09-23.74-280.32
	c-61.87-87.72-174.66-128.62-278.72-103.68c-107.11,25.67-187.73,111.35-204.98,217.87C249.3,645.87,349.73,785.1,501.37,806.93
	c88.71,12.77,165.89-14.2,230.18-76.97c12.66-12.36,21.14-14.46,29.59-6.5c8.98,8.45,7.64,17.64-5.72,30.33
	c-89.37,84.89-194.29,112.59-311.03,73.58c-117.94-39.41-187.65-125.22-205.26-248.41c-24.26-169.66,100.33-324.41,271.31-341.34
	C520.22,236.64,530.05,236.2,539.86,235.51z"/>
<path d="M607.4,607.39c0,27.1,0.03,52.72-0.01,78.34c-0.02,17.36-5.43,22.92-22.43,22.95c-30.22,0.05-60.45,0.06-90.67,0
	c-16.36-0.03-21.88-5.7-21.91-22.36c-0.04-25.93-0.01-51.86-0.01-78.92c-25.74,0-50.58,0.01-75.42,0
	c-21.51-0.01-25.84-4.35-25.85-25.87c0-29.53-0.07-59.06,0.03-88.58c0.05-14.49,6.02-20.51,20.5-20.57
	c26.35-0.12,52.7-0.03,80.74-0.03c0-3.68,0-7,0-10.33c0-23.55-0.07-47.1,0.03-70.66c0.06-13.86,6.13-20.2,19.74-20.26
	c31.98-0.15,63.96-0.16,95.94,0.01c13.01,0.07,19.2,6.44,19.27,19.66c0.15,26.68,0.04,53.37,0.04,81.07
	c3.83,0.18,7.2,0.48,10.56,0.48c23.9,0.04,47.8-0.12,71.69,0.09c12.5,0.11,18.89,6.47,18.96,18.89c0.18,32.34,0.18,64.68,0,97.02
	c-0.07,12.8-6.6,18.95-19.94,19.03C662.02,607.5,635.37,607.39,607.4,607.39z M573.64,405.46c-22.96,0-44.86,0-67.52,0
	c0,27.28,0.1,53.92-0.04,80.56c-0.07,13.73-6.29,19.85-20.05,19.98c-15.46,0.15-30.92,0.04-46.37,0.04c-11.44,0-22.87,0-33.95,0
	c0,23.46,0,45.37,0,67.6c25.79,0,50.72-0.01,75.66,0c20.12,0.01,24.75,4.63,24.76,24.74c0.01,25.2,0,50.39,0,75.9
	c22.98,0,44.87,0,67.52,0c0-27.64-0.13-54.64,0.06-81.63c0.09-12.56,6.38-18.81,18.82-18.96c16.86-0.2,33.73-0.05,50.59-0.05
	c10.39,0,20.79,0,31.01,0c0-23.33,0-45.24,0-67.61c-26.77,0-52.74,0.04-78.72-0.02c-15.91-0.04-21.7-5.74-21.74-21.46
	C573.59,458.55,573.64,432.55,573.64,405.46z"/>
</svg>
